<?xml version="1.0" encoding="UTF-8" standalone="no"?>
<svg width="142px" height="141px" viewBox="0 0 142 141" version="1.1" xmlns="http://www.w3.org/2000/svg" xmlns:xlink="http://www.w3.org/1999/xlink" xmlns:sketch="http://www.bohemiancoding.com/sketch/ns">
    <!-- Generator: Sketch 3.1.1 (8761) - http://www.bohemiancoding.com/sketch -->
    <title>Slice 2</title>
    <desc>Created with Sketch.</desc>
    <defs></defs>
    <g id="Page-1" stroke="none" stroke-width="1" fill="none" fill-rule="evenodd" sketch:type="MSPage">
        <g id="wirsing-logo-vertical-white" sketch:type="MSLayerGroup" fill="#000000">
            <g id="Group" sketch:type="MSShapeGroup">
                <g id="Shape">
                    <path d="M71.4,113.9 L68.4,110.3 C68.8,110 78.1,102.2 91.4,97.5 C104.8,92.8 120.3,94.7 120.9,94.8 L120.3,99.5 C120.2,99.5 105.3,97.6 93,101.9 C80.5,106.3 71.5,113.8 71.4,113.9 L71.4,113.9 Z"></path>
                    <path d="M69.3,96 C66.9,95.3 46.1,89.3 42.4,81.5 C40.3,77.1 40.3,71.7 40.2,66.5 C40.2,62.7 40.1,59.1 39.3,56.1 C37.6,49.9 34.6,48 34.4,47.9 L36.7,43.8 C37.2,44.1 41.5,46.6 43.8,54.8 C44.8,58.4 44.8,62.4 44.9,66.4 C44.9,71.1 45,75.9 46.6,79.4 C48.7,83.8 62.4,89.1 70.5,91.4 L69.3,96 L69.3,96 Z"></path>
                    <path d="M70.9,73.5 L69.3,73.5 L69.6,68.8 C69.7,68.8 79,69.3 86,65.6 C93.3,61.8 106.8,49.4 107,49.3 L110.2,52.8 C109.6,53.3 96,65.7 88.2,69.8 C81.8,73.1 74.2,73.5 70.9,73.5 L70.9,73.5 Z"></path>
                    <path d="M71.3,126.5 C70.5,126.4 51.3,125.2 42.6,122.8 C33.7,120.3 18.7,104.2 17,102.3 L20.5,99.1 C24.8,103.8 37.5,116.4 43.9,118.2 C52.1,120.5 71.4,121.7 71.6,121.7 L71.3,126.5 L71.3,126.5 Z"></path>
                    <path d="M71.5,141 C70.2,141 69.2,140 69.2,138.7 C69.2,138 66.3,71.2 66.3,53.3 C66.3,34.9 73.2,21.2 73.5,20.6 C74.1,19.4 75.5,19 76.7,19.6 C77.9,20.2 78.3,21.6 77.7,22.8 C77.6,23 71,36.1 71,53.3 C71,71.1 73.8,137.8 73.9,138.5 C74,139.8 72.9,140.9 71.6,141 L71.5,141 L71.5,141 Z"></path>
                    <path d="M79.1,24.1 C72.4,24.1 67,18.7 67,12 C67,5.3 72.4,-0.1 79.1,-0.1 C85.8,-0.1 91.2,5.3 91.2,12 C91.2,18.7 85.8,24.1 79.1,24.1 L79.1,24.1 Z M79.1,4.7 C75,4.7 71.7,8 71.7,12.1 C71.7,16.2 75,19.5 79.1,19.5 C83.2,19.5 86.5,16.2 86.5,12.1 C86.5,8 83.2,4.7 79.1,4.7 L79.1,4.7 Z"></path>
                    <path d="M130.3,110.6 C123.6,110.6 118.2,105.2 118.2,98.5 C118.2,91.8 123.6,86.4 130.3,86.4 C137,86.4 142.4,91.8 142.4,98.5 C142.4,105.2 136.9,110.6 130.3,110.6 L130.3,110.6 Z M130.3,91.2 C126.2,91.2 122.9,94.5 122.9,98.6 C122.9,102.7 126.2,106 130.3,106 C134.4,106 137.7,102.7 137.7,98.6 C137.6,94.5 134.3,91.2 130.3,91.2 L130.3,91.2 Z"></path>
                    <path d="M28.7,51.2 C22,51.2 16.6,45.8 16.6,39.1 C16.6,32.4 22,27.1 28.7,27.1 C35.4,27.1 40.8,32.5 40.8,39.2 C40.8,45.9 35.3,51.2 28.7,51.2 L28.7,51.2 Z M28.7,31.8 C24.6,31.8 21.3,35.1 21.3,39.2 C21.3,43.3 24.6,46.6 28.7,46.6 C32.8,46.6 36.1,43.3 36.1,39.2 C36.1,35.1 32.7,31.8 28.7,31.8 L28.7,31.8 Z"></path>
                    <path d="M114.9,55.7 C108.2,55.7 102.8,50.3 102.8,43.6 C102.8,36.9 108.2,31.5 114.9,31.5 C121.6,31.5 127,36.9 127,43.6 C127,50.3 121.5,55.7 114.9,55.7 L114.9,55.7 Z M114.9,36.3 C110.8,36.3 107.5,39.6 107.5,43.7 C107.5,47.8 110.8,51.1 114.9,51.1 C119,51.1 122.3,47.8 122.3,43.7 C122.3,39.6 118.9,36.3 114.9,36.3 L114.9,36.3 Z"></path>
                    <path d="M12,105.8 C5.3,105.8 -0.1,100.4 -0.1,93.7 C-0.1,87 5.3,81.6 12,81.6 C18.7,81.6 24.1,87 24.1,93.7 C24.1,100.4 18.7,105.8 12,105.8 L12,105.8 Z M12,86.4 C7.9,86.4 4.6,89.7 4.6,93.8 C4.6,97.9 7.9,101.2 12,101.2 C16.1,101.2 19.4,97.9 19.4,93.8 C19.4,89.7 16.1,86.4 12,86.4 L12,86.4 Z"></path>
                </g>
            </g>
        </g>
    </g>
</svg>